<?xml version="1.0" encoding="UTF-8" standalone="no"?><!DOCTYPE svg PUBLIC "-//W3C//DTD SVG 1.1//EN" "http://www.w3.org/Graphics/SVG/1.1/DTD/svg11.dtd"><svg width="100%" height="100%" viewBox="0 0 160 160" version="1.1" xmlns="http://www.w3.org/2000/svg" xmlns:xlink="http://www.w3.org/1999/xlink" xml:space="preserve" xmlns:serif="http://www.serif.com/" style="fill-rule:evenodd;clip-rule:evenodd;stroke-linecap:round;stroke-linejoin:round;stroke-miterlimit:1.5;"><g id="Logo"><circle cx="80" cy="80" r="79.725" style="fill:#bf1c1c;"/><g id="m"><path d="M96.358,83.737c-0.074,22.266 0.028,27.673 0.028,27.673c-0.063,0.354 -4.357,0.213 -9.309,-1.369c-2.504,-0.8 -8.854,-3.227 -12.63,-7.487c-1.338,-1.509 -2.522,-2.902 -3.367,-4.566c-0.452,-0.89 -1.201,-2.264 -1.645,-3.662c-0.441,-1.386 -0.579,-2.799 -0.606,-2.83c-0.111,-0.128 -0.084,-4.293 -0.092,-8.971l0,-14.948c-0.009,-4.579 -0.052,-9.649 -0.293,-11.905c-0.32,-2.992 -1.801,-6.004 -3.78,-8c-0.627,-0.631 -1.452,-0.918 -2.217,-1.102c-0.765,-0.183 -1.604,-0.182 -2.374,0c-0.773,0.184 -2.262,1.102 -2.262,1.102c0,0 3.196,-3.789 7.612,-5.789c3.294,-1.493 7.443,-2.491 11.6,-2.037c9.718,1.061 19.426,7.193 19.363,21.663c-0.011,2.607 -0.021,5.029 -0.028,7.279l0,14.949Z" style="fill:none;stroke:#fff;stroke-width:1px;"/><path d="M106.636,92.962l0,-23.643c-0.003,-4.964 -0.022,-11.1 -0.294,-13.647c-0.32,-2.992 -1.802,-6.004 -3.781,-8c-0.626,-0.631 -1.452,-0.918 -2.217,-1.102c-0.765,-0.183 -1.604,-0.182 -2.374,0c-0.773,0.184 -2.262,1.102 -2.262,1.102c0,0 3.197,-3.789 7.613,-5.789c3.294,-1.493 7.442,-2.491 11.599,-2.037c9.718,1.061 19.427,7.193 19.363,21.663c-0.017,3.869 -0.029,7.332 -0.037,10.428l0,23.643c-0.055,19.634 0.037,24.524 0.037,24.524c-0.062,0.355 -4.356,0.213 -9.309,-1.369c-0.649,-0.207 -1.556,-0.524 -2.609,-0.953c-3.013,-1.228 -7.223,-3.378 -10.02,-6.533c-1.338,-1.51 -2.522,-2.903 -3.367,-4.566c-0.453,-0.891 -1.201,-2.265 -1.645,-3.662c-0.441,-1.387 -0.579,-2.8 -0.607,-2.831c-0.097,-0.111 -0.088,-3.304 -0.09,-7.228Z" style="fill:none;stroke:#fff;stroke-width:1px;"/><path d="M19.716,47.672c0,0 3.197,-3.789 7.613,-5.789c3.294,-1.493 7.443,-2.491 11.599,-2.037c9.718,1.061 19.427,7.193 19.364,21.663c-0.124,28.398 0,34.953 0,34.953c-0.063,0.354 -4.357,0.213 -9.31,-1.37c-2.503,-0.8 -8.853,-3.226 -12.629,-7.486c-1.338,-1.509 -2.522,-2.903 -3.367,-4.566c-0.453,-0.89 -1.201,-2.265 -1.645,-3.662c-0.441,-1.386 -0.579,-2.799 -0.607,-2.831c-0.219,-0.252 0.103,-16.314 -0.384,-20.875c-0.32,-2.992 -1.802,-6.004 -3.781,-8c-0.626,-0.631 -1.451,-0.918 -2.216,-1.102c-0.766,-0.183 -1.605,-0.182 -2.375,0c-0.772,0.184 -2.262,1.102 -2.262,1.102Z" style="fill:none;stroke:#fff;stroke-width:0.95px;"/></g></g></svg>